<svg width="32" height="32" viewBox="0 0 407 411" fill="none" xmlns="http://www.w3.org/2000/svg">
<path d="M3 408H77.4473L77.4473 234.5L202.654 390.654L329.553 234.5L329.553 408H404V8L202.654 276.068L3 8V408Z" fill="url(#paint0_linear_495_41)"/>
<path d="M312.633 96.3049H90.9831L146.819 168.841H259.617L312.633 96.3049Z" fill="url(#paint1_linear_495_41)"/>
<path d="M3 408H77.4473L77.4473 234.5L202.654 390.654L329.553 234.5L329.553 408H404V8L202.654 276.068L3 8V408Z" stroke="#0356E5" stroke-width="5"/>
<path d="M312.633 96.3049H90.9831L146.819 168.841H259.617L312.633 96.3049Z" stroke="#0356E5" stroke-width="5"/>
<defs>
<linearGradient id="paint0_linear_495_41" x1="203.5" y1="8" x2="203.5" y2="408" gradientUnits="userSpaceOnUse">
<stop stop-color="#034FE5"/>
<stop offset="1" stop-color="#03C1E5"/>
</linearGradient>
<linearGradient id="paint1_linear_495_41" x1="203.5" y1="8" x2="203.5" y2="408" gradientUnits="userSpaceOnUse">
<stop stop-color="#034FE5"/>
<stop offset="1" stop-color="#03C1E5"/>
</linearGradient>
</defs>
</svg>
